<svg enable-background="new 0 0 400 400" viewBox="0 0 400 400" xmlns="http://www.w3.org/2000/svg"><path d="m374.8 390.4.4-.4c.7.5 1.3 1 1.8 1.4l-.5.5c-.5-.6-1.1-1.1-1.7-1.5zm1 7.3-.6-.3c.5-1.4 1.1-2.8 1.5-4.3.2.1.4.2.6.3-.5 1.3-1 2.8-1.5 4.3zm-.4-10.3.4-.4c.4.3 1 .8 1.7 1.4l-.5.5c-.4-.5-1-1-1.6-1.5zm2.5.3h1.7v-1h.6v1h3.5v-1h.6v1h1.8v.5h-1.8v1.4h-2v1h3.2v2h-3.2v.9h3.3v.5h-3.4c0 .3-.1.6-.1.9h4v.5h-3.7c.7.9 1.9 1.5 3.8 1.7-.1.2-.2.4-.3.6-2.1-.4-3.5-1.1-4-2.1-.4 1-1.8 1.7-4 2.2-.1-.2-.2-.4-.3-.6 2.1-.4 3.4-1 3.8-1.8h-3.4v-.5h3.6c.1-.3.1-.6.2-.9h-3.3v-.5h3.4c0-.3 0-.6 0-.9h-3.2v-2h3.3v-1h-2.1v-1.4h-1.7v-.5zm1.1 3.5v1h2.7c0-.3 0-.4 0-.4 0-.1 0-.2 0-.2 0-.1 0-.2 0-.3h-2.7zm1.2-3v.9h3.5v-.9zm4.7 3h-2.6v.6.4h2.6z" fill="#fbfafc"/><path d="m393.6 386.7h.6v1.5h2.7v6.1h1.1v.6h-11v-.6h1.1v-6.1h2.7v-1.5h.6v1.5h2.1v-1.5zm-2.7 8.8.4.6c-1.2.6-2.5 1.3-3.8 1.9-.1-.2-.2-.4-.3-.6 1.2-.6 2.5-1.2 3.7-1.9zm-2.2-6.7v2.4h2.1v-2.4zm0 3v2.5h2.1v-2.5zm2.8-3v2.4h2.1v-2.4zm0 3v2.5h2.1v-2.5zm6 6.1c-1.4-.7-2.7-1.3-3.9-1.8l.3-.6c1.5.6 2.7 1.2 3.9 1.7zm-1.2-9.1h-2.1v2.4h2.1zm-2.1 3v2.5h2.1v-2.5z" fill="#fbfafc"/><g fill="#c00000"><path d="m293.3 324.3c1.2-14.3 2.1-28 3.5-41.6 1.6-15.6 3.7-31.2 5.1-46.8.2-2.7-1.4-7.2-3.4-8-2.8-1.1-7-.2-9.8 1.2-3.4 1.7-6.2 4.7-8.9 7.5-1.1 1.1-1.7 3-1.8 4.6-.2 5-.4 10.1 0 15.1 1.3 18.4-2.8 35.9-9.8 52.5-6.8 16.3-14.7 32.1-22.4 48-2.2 4.6-5.8 8.3-11.3 9.1-4.3.7-6.1-1-4.9-5 1.4-4.6 2.8-9.4 5.6-13.3 14.6-20.6 23.1-43.7 29.4-67.8 2.6-9.8 2.4-23.4-.2-31.7-4.8 5-9.2 9.6-13.6 14.3-14.6 15.4-27.9 31.6-37.4 50.8-1.2 2.5-3.4 4.9-5.7 6.5-1.4 1-4.1.9-5.8.2-1.1-.4-2.2-3-1.9-4.2 1.5-5.2 2.8-10.7 5.4-15.4 13.9-25.2 34.3-45 54.4-65.1 2.5-2.5 3.5-4.5 2.4-7.9-1.7-5.4-2.9-11-4.7-17.9-2 2.4-3.1 3.6-4.2 4.9-12.9 15-27.7 27.8-45.4 36.9-8.1 4.1-14.7 5.1-23 4.3-2.2-6.8-2.3-7 4-9.9 20.4-9.4 38.6-21.9 54.8-37.4.2-.2.5-.5.7-.7 8.8-9 9-10.1 4.2-21.4-1.3-3.1-2.8-6-4.1-8.8-10.5 8.1-20.1 16.3-30.6 23.2-7.6 4.9-16.4 8-24.8 11.8-1.4.6-3.2.8-4.7.6-1.6-.3-4.4-1.1-4.5-2-.4-2.5-1.9-5.7 2.1-7.5 8.5-4 16.7-8.5 25.2-12.5 17.5-8.2 30.7-20.2 34.2-40.1 1.4-7.8 1.2-15.8 1.5-23.8 0-1-1.6-2.7-2.7-3-10.2-2.2-20.1-.3-29.4 3.8-4.3 1.9-3.7 7.2-3.6 11.4.2 6.4 1.1 7.5 7.3 8.2 3.4.4 6.8.5 10.1 1.1 1.9.3 4.1.7 5.3 1.9 1.6 1.6 2.9 4 3.1 6.2.1.9-2.6 2.6-4.2 3.3-8.5 3.6-24.3.6-29.2-5.3-6.1-7.3-7.5-22.6-2.3-30.8 3.3-5.3 8.8-8.3 14.8-9.4 8.7-1.6 17.6-3.3 26.4-3.6 5.8-.2 8.1-2.8 8.8-7.3.8-5 1.8-9.2 5.9-12.8 4.9-4.2 10.7-4.9 16.7-5.6 7.2-.8 14.4-1.8 22.1-2.7-.9-4.2-1.7-7.8-2.6-11.9-16.2-1-32.3-2-49.1-3.1-1.1 5.2-2.4 10.2-3 15.2-1.2 9.8-7.1 15.5-15.8 18.4-13.4 4.6-27 3.7-40.5.7-1.1-8-1.2-8.4 5.8-9.5 5.5-.9 11.3-.4 16.9-.9 4.4-.4 9-.9 13.2-2.4 4.5-1.7 7.8-4.8 7.8-10.5 0-4.9 1.3-9.9 2-14.5-9.4-4-18.4-7.7-27.2-11.6-2.6-1.2-5.1-2.8-7.4-4.6-5.3-4.3-5.3-4.9-1.8-11.6 13.5 4.5 27.3 8.6 40.7 13.8 15.8 6 31.6 8.5 48.5 6.3 11.3-1.5 22.7 5.5 24.4 14.9 1 5.5-.1 11.5-.8 17.2-.2 1.5-2.3 3-3.9 3.9-7.5 4.1-15.7 4.8-24 4.9-9.9.1-15.1 4.1-17 13.7 7.9.9 15.7 2.1 23.5 2.5 11.1.6 18.6 6.4 19.6 17.4.7 7.3-.3 14.8-.6 22.2 0 1-.8 2.2-1.5 2.9-8.7 8-18.9 11.2-30.4 7.8-2.2-.7-4.2-3.6-5-6-.3-.9 2.5-4 4.3-4.5 4.6-1.3 9.4-2.1 14.2-2.4 5.7-.3 7.5-1.8 7.6-7.6 0-1.5 0-2.9 0-4.4-.1-8.5-2.6-11.9-11.1-13.1-5.9-.9-12-.8-17.9-1.1-2.6-.1-3.7.9-4.1 3.6-1.4 10.4-3.3 20.8-4.6 31.2-.4 3.2.1 6.9 1.4 9.8 4.9 10.4 10.7 20.4 15.3 30.9 3 7 4.5 14.8 6.8 22.9 3.2-1.6 7-3.5 10.8-5.4 2.5-1.2 4.9-2.8 7.5-3.4 10.3-2.1 13.3-.3 16.2 9.7 3.5 12.4 4.4 25.1 3.5 38-1.2 18.5-3.3 36.8-8.3 54.7-2.3 7.1-2.6 7.3-12.1 7.8z"/><path d="m138.2 48.3c8.3 1.2 19.6 2.5 30.6 4.7 8.6 1.7 14.8 6.8 16 16.1.4 2.7 0 5.9-1.1 8.4-4.9 11.1-10 22.1-15.3 33.1-1.3 2.7-1.2 4.7.3 7.1 6.9 11.1 13.2 22.6 14.7 35.7 1 8.2.2 16.7-.4 25-.4 4.4-7 7.9-14.1 8.1-6.5.2-12.9.1-19.4 0-3.2 0-4.1 1.7-4.2 4.6-.3 14-.7 27.9-1.1 41.9-1 30.9-2 61.9-6.5 92.6-.9 6.6-1.1 13.3-2.3 19.8-.7 3.5-2.4 7.2-4.6 9.9-1.4 1.6-4.9 2.2-7.2 1.9-1.1-.1-2.8-3.5-2.6-5.2.9-8.5 2.4-16.9 3.6-25.4 1.3-9.8 3.1-19.5 3.6-29.3 1.4-25.9 2.3-51.8 3.4-77.8.3-7.9.5-15.9.8-23.8.2-6.4-.7-7.5-7.3-8.1-6.9-.6-13.9-.7-20.7-2-9.6-1.8-12.7-6.1-12.8-15.9-.2-16.2 2.7-31.6 11-45.7 1.7-2.9 1.3-5.1-.1-8-5.2-10.8-11.1-21.4-14.6-32.7-1.9-6.2.2-13.6.8-20.5.1-1.3 1.6-2.7 2.8-3.7 7.1-6.2 15.8-7.9 24.7-9 6.3-.9 12.6-1.1 22-1.8zm34.3 125.3c-.4-17.6-3.5-33.1-13.3-47.5-6.7 7.6-13.1 14.9-19.6 22.1-3.5 3.9-7 4.5-11.1 1.7-1.8-1.3-3.5-2.9-5-4.6-3.3-3.9-6.3-8-10.6-13.4-3.1 9.6-6.2 18-8.5 26.6-.9 3.3-.3 7 .1 10.5.4 3.2 2 4.9 5.9 4.8 12.7-.3 25.3-.2 38-.2zm-12.6-71.7c3.4-8.8 6.5-16.9 9.7-25 3.3-8.4 2.6-9.9-6.2-12.5-1.1-.3-2.2-.6-3.3-.7-9.8-.6-19.7-1.8-29.5-1.4-8.9.4-17.8 2.3-26.7 4-4.8.9-5.6 4.6-5.1 8.9 1.3 11.1 6.8 20.4 12.7 30 5.2-6 10.7-11.2 14.8-17.4 4.7-7 16.3-7 21.4-.4 3.6 4.8 7.7 9.2 12.2 14.5zm-21-7.6c-6.4 6-12.7 11.5-15.2 19.6-1.1 3.5-1.6 8.4 0 11.5 2.7 5.3 7.2 9.6 12.1 15.6 5.9-9.2 11-17 15.9-24.9.5-.9.6-2.6.1-3.4-4.2-6.1-8.5-12.1-12.9-18.4z"/></g></svg>